<svg width="162" height="122" viewBox="0 0 162 122" fill="none" xmlns="http://www.w3.org/2000/svg">
<g id="Group 1000005138">
<g id="Group 1000005137">
<g id="Group 1000005135">
<path id="Rectangle 40368" d="M147.314 56.569V34.4121C147.314 19.2243 135.002 6.91211 119.814 6.91211H55.3403C47.523 6.91211 41.0164 12.9157 40.3887 20.7077L37.5 56.569" stroke="#5C6068"/>
<path id="Union" d="M80.3809 16.1465H67.8341C67.4391 14.2598 65.7665 12.8431 63.7626 12.8431C62.1813 12.8431 60.8063 13.7252 60.1026 15.0243C59.3989 13.7252 58.0239 12.8431 56.4426 12.8431C54.2848 12.8431 52.4891 14.4859 52.285 16.5969L52.2827 16.6209V16.645V16.7823V30.8172C52.2827 32.224 53.2253 33.456 54.5824 33.8244L88.039 43.8985C88.8493 44.1425 89.0091 45.22 88.3045 45.6887L79.2684 51.6994L74.8527 49.8199C66.6869 46.3442 59.1122 55.8002 64.2864 63.0105C64.5523 63.381 64.8558 63.723 65.1922 64.031L76.749 74.6146L78.8432 81.377L79.1999 82.5288L79.7629 81.4625L84.6281 72.2488L84.8142 72.5818C85.4848 73.7819 85.8463 75.1294 85.867 76.5028L82.9814 81.8267L76.4088 83.6524L75.5271 83.8973L76.2095 84.507L78.9878 86.9891L79.0014 87.0012L79.0158 87.0124L88.3251 94.1802L88.7141 94.4797L89.0207 94.0962L102.693 76.9932L105.583 74.9034C118.088 65.8628 125.272 51.1906 124.745 35.7691L123.972 13.1605L123.951 12.5463L123.894 12.5602C122.849 5.73089 116.951 0.5 109.829 0.5C105.49 0.5 101.604 2.44293 98.9952 5.50456C97.1901 4.49562 95.1095 3.92067 92.8959 3.92067C86.08 3.92067 80.5363 9.36791 80.3809 16.1465Z" fill="#96CF5A" stroke="#182C29"/>
<path id="Vector 1040" d="M76.3809 57.75L85.2783 67.5372C85.9478 68.2736 86.1167 69.3371 85.7082 70.2447L84.1309 73.75" stroke="black" stroke-linecap="round"/>
<path id="Vector 1041" d="M80.8809 62.5H87.8809" stroke="black" stroke-linecap="round"/>
<path id="Vector 1034" d="M93.7712 29.0004C91.8801 29.9036 88.7205 32.8236 91.0351 36.6428" stroke="black" stroke-linecap="round"/>
<path id="Union_2" d="M109.851 23.2503C115.237 23.2503 119.603 18.8839 119.603 13.4977C119.603 8.1115 115.237 3.74512 109.851 3.74512C105.261 3.74512 101.412 6.91535 100.374 11.1854C98.9982 8.24183 96.0107 6.20238 92.5469 6.20238C87.7777 6.20238 83.9116 10.0685 83.9116 14.8376C83.9116 19.6067 87.7777 23.4729 92.5469 23.4729C96.4816 23.4729 99.8016 20.8412 100.843 17.242C102.311 20.7699 105.791 23.2503 109.851 23.2503Z" fill="white"/>
<path id="Vector 979" d="M105.378 9.7334C104.653 10.9896 103.929 13.658 104.661 15.9898" stroke="black" stroke-width="1.69631" stroke-linecap="round"/>
<path id="Vector 980" d="M88.7896 10.5059C88.0649 11.762 87.3408 14.4304 88.0722 16.7623" stroke="black" stroke-width="1.69631" stroke-linecap="round"/>
<path id="Rectangle 40369" d="M143.46 56.6972H148.645C155.563 56.6972 161.165 62.3154 161.145 69.2329L161.065 97.2765C161.028 110.229 150.517 120.709 137.565 120.709L18.5 120.709C8.835 120.709 1 112.874 1 103.209V74.0693C1 64.4043 8.83501 56.5693 18.5 56.5693H43.5" stroke="#5C6068" stroke-linecap="round"/>
<path id="Vector 1029" d="M5.12646 120.709L152.631 120.709" stroke="#5C6068" stroke-linecap="round"/>
<path id="Vector 1030" d="M124.333 38.6827L124.306 38.6621L122.73 47.3199C123.031 48.0248 121.83 49.0503 122.73 49.5773C120.479 49.3897 119.425 49.687 116.461 49.5773C112.032 49.4132 110.946 54.3147 111.009 57.0369H136.604C137.838 56.3223 139.804 53.8282 138.088 50.8657C136.377 47.9098 128.283 41.7085 124.333 38.6827Z" fill="#96CF5A"/>
<path id="Vector 1032" d="M103.21 56.6943H116.004H127.881L116.004 100.25H86.3809L89.7888 68.7426C90.5301 61.8886 96.3166 56.6943 103.21 56.6943Z" fill="#1F2024"/>
<path id="Vector 1031" d="M124.305 38.0898C128.245 41.108 136.553 47.885 138.268 50.8475C139.983 53.8101 137.943 55.98 136.709 56.6946H111.114C111.051 53.9724 112.033 48.569 116.462 48.733C119.426 48.8428 122.507 49.0614 124.758 49.249M127.372 49.4872C126.78 49.4267 125.87 49.3416 124.758 49.249M122.73 46.4756C123.032 47.1805 123.859 48.722 124.758 49.249" stroke="black" stroke-linecap="round"/>
<path id="Vector 1039" d="M143.999 56.6943H103.548H103.21C96.3166 56.6943 90.5301 61.8886 89.7888 68.7426L86.3809 100.25" stroke="#5C6068" stroke-linecap="round"/>
<path id="Vector 1033" d="M86.1309 31.5312L90.0845 32.601" stroke="black" stroke-linecap="round"/>
<path id="Vector 1035" d="M117.3 31.7412C117.635 32.9117 117.559 35.5308 114.566 36.6433" stroke="black" stroke-linecap="round"/>
<path id="Vector 1036" d="M82.8018 52.3882C82.6648 52.1485 82.3593 52.0652 82.1196 52.2022C81.8798 52.3392 81.7965 52.6446 81.9336 52.8844L82.8018 52.3882ZM88.5271 57.2558L88.4856 57.7541L88.5271 57.2558ZM101.383 50.3348L101.274 49.8469L101.169 49.8703L101.083 49.9348L101.383 50.3348ZM106.114 49.1742L106.251 49.655L106.114 49.1742ZM108.676 44.5704L109.174 44.6186L108.676 44.5704ZM103.545 44.5704L103.653 45.0586L103.545 44.5704ZM92.3603 42.4156L92.0487 42.8067L92.3603 42.4156ZM88.8663 47.8381C88.5971 47.8998 88.4289 48.168 88.4906 48.4372C88.5523 48.7063 88.8205 48.8745 89.0896 48.8129L88.8663 47.8381ZM106.008 47.5074L105.896 47.9948L106.008 47.5074ZM105.921 47.1152L106.178 47.5438L105.921 47.1152ZM81.9336 52.8844C82.3686 53.6456 83.2028 54.7829 84.3154 55.7671C85.4245 56.7482 86.8574 57.6184 88.4856 57.7541L88.5686 56.7575C87.2404 56.6468 86.0042 55.9259 84.978 55.0181C83.9553 54.1134 83.1881 53.0642 82.8018 52.3882L81.9336 52.8844ZM88.4856 57.7541C89.5226 57.8405 90.6901 57.5519 91.8698 57.077C93.0573 56.599 94.302 55.9136 95.5081 55.1583C97.9174 53.6496 100.232 51.823 101.683 50.7348L101.083 49.9348C99.6055 51.0432 97.3402 52.8311 94.9774 54.3107C93.7975 55.0496 92.6082 55.7018 91.4964 56.1494C90.3766 56.6001 89.3794 56.8251 88.5686 56.7575L88.4856 57.7541ZM101.493 50.8227C103.966 50.2693 105.691 49.8153 106.251 49.655L105.977 48.6935C105.439 48.847 103.734 49.2964 101.274 49.8469L101.493 50.8227ZM106.251 49.655C106.823 49.4917 107.322 49.0157 107.386 48.4203C107.42 48.1048 107.324 47.7854 107.085 47.5263C106.856 47.2772 106.522 47.1123 106.119 47.02L105.896 47.9948C106.174 48.0583 106.3 48.1492 106.35 48.204C106.391 48.2488 106.396 48.2812 106.392 48.3131C106.381 48.4127 106.253 48.6144 105.977 48.6935L106.251 49.655ZM106.178 47.5438C106.663 47.2527 107.359 46.838 107.944 46.3701C108.237 46.1357 108.519 45.8754 108.738 45.5961C108.954 45.3209 109.138 44.99 109.174 44.6186L108.178 44.5222C108.168 44.6279 108.107 44.7799 107.951 44.9793C107.798 45.1745 107.581 45.3802 107.32 45.589C106.796 46.0077 106.16 46.3883 105.663 46.6866L106.178 47.5438ZM109.174 44.6186C109.201 44.3344 109.113 44.0705 108.914 43.87C108.735 43.6895 108.501 43.5956 108.288 43.5427C107.863 43.437 107.312 43.4446 106.763 43.4937C105.647 43.5935 104.304 43.8909 103.437 44.0821L103.653 45.0586C104.534 44.8641 105.812 44.5828 106.852 44.4897C107.382 44.4424 107.793 44.4499 108.046 44.5131C108.173 44.5445 108.207 44.5772 108.204 44.5745C108.182 44.5519 108.179 44.517 108.178 44.5222L109.174 44.6186ZM103.437 44.0821C101.634 44.4803 99.9785 44.7755 98.2591 44.5736C96.5543 44.3734 94.7476 43.6786 92.6719 42.0246L92.0487 42.8067C94.2495 44.5603 96.2277 45.342 98.1425 45.5668C100.043 45.7899 101.841 45.4586 103.653 45.0586L103.437 44.0821ZM92.6719 42.0246C92.3619 41.7776 92.0713 41.5936 91.8022 41.5184C91.6614 41.479 91.4947 41.4603 91.3231 41.5071C91.141 41.5569 91.001 41.6677 90.9062 41.8043C90.7415 42.0415 90.7211 42.3436 90.7236 42.5621C90.7264 42.8062 90.7626 43.0829 90.8097 43.3579C90.8573 43.6355 90.9195 43.9318 90.9799 44.2167C91.0412 44.5056 91.1005 44.7821 91.1462 45.0359C91.1924 45.2924 91.2208 45.504 91.2255 45.6637C91.2279 45.743 91.2239 45.7951 91.2187 45.8255C91.2128 45.8598 91.2101 45.839 91.2385 45.7993L92.0522 46.3805C92.1445 46.2513 92.1847 46.1088 92.2044 45.9942C92.2246 45.8757 92.2286 45.752 92.2251 45.6338C92.2181 45.3984 92.179 45.1282 92.1303 44.8585C92.0813 44.5862 92.0183 44.2924 91.9582 44.0092C91.8973 43.722 91.8391 43.4444 91.7954 43.1891C91.7512 42.931 91.7254 42.7155 91.7235 42.5508C91.7214 42.3604 91.7538 42.3369 91.7277 42.3745C91.7022 42.4112 91.653 42.4537 91.5865 42.4718C91.5307 42.487 91.5046 42.4735 91.533 42.4815C91.6023 42.5008 91.7641 42.5798 92.0487 42.8067L92.6719 42.0246ZM91.2385 45.7993C91.1008 45.9921 90.9621 46.2268 90.8421 46.415C90.7134 46.6169 90.5808 46.8083 90.4188 46.9867C90.1064 47.3306 89.6571 47.6569 88.8663 47.8381L89.0896 48.8129C90.0829 48.5852 90.7116 48.1517 91.1591 47.659C91.3769 47.4191 91.5448 47.173 91.6853 46.9526C91.8347 46.7183 91.9342 46.5457 92.0522 46.3805L91.2385 45.7993ZM106.119 47.02C106.229 47.0451 106.299 47.1306 106.319 47.2178C106.33 47.2637 106.331 47.3234 106.307 47.3873C106.282 47.4554 106.234 47.5104 106.178 47.5438L105.663 46.6866C105.366 46.8653 105.285 47.1894 105.346 47.4468C105.404 47.6946 105.599 47.9267 105.896 47.9948L106.119 47.02Z" fill="black"/>
<path id="Vector 1037" d="M93.6309 43.2502L93.6214 43.2392C93.1098 42.6424 91.4382 40.6926 92.6308 39.5001C94.1308 38.0001 96.1308 39.5001 96.3808 40.5001C96.3808 38.5001 95.8808 35.0002 100.381 36.0002C103.534 36.701 103.081 39.5982 102.08 40.8354C103.406 39.7672 105.715 39.0303 106.381 41.2502C106.96 43.1808 105.631 44.0002 104.131 44.5002L103.397 44.7449C100.091 45.847 96.4561 45.2907 93.6309 43.2502Z" fill="#FFE68F" stroke="black" stroke-linecap="round" stroke-linejoin="round"/>
<path id="Vector 1038" d="M76.1308 75.5H19.5" stroke="#5C6068" stroke-linecap="round" stroke-linejoin="round"/>
<path id="Vector 1042" d="M110.131 65C109.381 66.0833 107.381 68.5 106.631 83.25" stroke="#5C6068" stroke-linecap="round"/>
</g>
</g>
<path id="Vector 1061" d="M41.1444 48.7398C40.002 49.0121 40.0603 50.8188 40.2185 51.7415L41.7452 54.5455L57.459 54.1713L62.1779 51.2038C62.2175 50.7951 62.6619 49.7821 61.2099 49.3284C59.8324 48.8979 58.6387 50.9013 58.0337 51.4156C58.0337 50.8711 59.0925 48.7398 57.459 47.9066C55.3947 46.8537 54.5836 48.2466 54.1618 49.1166C54.399 48.352 54.0916 47.1698 52.4781 46.9167C50.4613 46.6004 49.6243 48.4591 49.1167 49.5268C49.2915 48.4591 49.0376 46.3633 46.7439 46.3633C44.4502 46.3633 43.9978 48.7398 43.8175 50.2388C43.4616 48.7361 42.5602 48.4023 41.1444 48.7398Z" fill="#FFE68F" stroke="black" stroke-linecap="round" stroke-linejoin="round"/>
<path id="Vector 1057" d="M36 53.64L39.6296 76H61.9259L64 54.68L61.9259 51.04L57.7778 53.64L54.1481 50L50.5185 53.64L46.3704 50L42.7407 53.64L38.5926 51.04L36 53.64Z" fill="#F5F5F5" stroke="black" stroke-linecap="round" stroke-linejoin="round"/>
<path id="Vector 1058" d="M38.6717 51.666L36.5156 53.8321L39.9997 75.4998H43.9997L42.6809 54.1757L38.6717 51.666Z" fill="#F16464"/>
<path id="Vector 1059" d="M54.1533 50.6982L51.0386 53.8325L50.4277 75.5002H55.3231L57.5902 54.1351L54.1533 50.6982Z" fill="#F16464"/>
<path id="Vector 1060" d="M50.0278 71.3516C50.0278 71.6277 50.2517 71.8516 50.5278 71.8516C50.804 71.8516 51.0278 71.6277 51.0278 71.3516H50.0278ZM51.0278 71.3516V53.5586H50.0278V71.3516H51.0278Z" fill="black"/>
</g>
</svg>
