<svg width="38" height="14" viewBox="0 0 38 14" fill="none" xmlns="http://www.w3.org/2000/svg">
<rect width="38" height="14" rx="7" fill="#CDC7D3"/>
<path d="M7.023 6.787C7.359 6.847 7.644 7.024 7.878 7.318C8.112 7.612 8.229 7.945 8.229 8.317C8.229 8.635 8.145 8.923 7.977 9.181C7.815 9.433 7.578 9.634 7.266 9.784C6.954 9.928 6.591 10 6.177 10H3.675V3.745H6.06C6.486 3.745 6.852 3.817 7.158 3.961C7.464 4.105 7.695 4.3 7.851 4.546C8.007 4.786 8.085 5.056 8.085 5.356C8.085 5.716 7.989 6.016 7.797 6.256C7.605 6.496 7.347 6.673 7.023 6.787ZM4.701 6.373H5.97C6.306 6.373 6.567 6.298 6.753 6.148C6.945 5.992 7.041 5.77 7.041 5.482C7.041 5.2 6.945 4.981 6.753 4.825C6.567 4.663 6.306 4.582 5.97 4.582H4.701V6.373ZM6.087 9.163C6.435 9.163 6.708 9.079 6.906 8.911C7.104 8.743 7.203 8.509 7.203 8.209C7.203 7.903 7.098 7.66 6.888 7.48C6.678 7.3 6.399 7.21 6.051 7.21H4.701V9.163H6.087ZM13.8349 5.041V10H12.8089V9.415C12.6469 9.619 12.4339 9.781 12.1699 9.901C11.9119 10.015 11.6359 10.072 11.3419 10.072C10.9519 10.072 10.6009 9.991 10.2889 9.829C9.98295 9.667 9.73995 9.427 9.55995 9.109C9.38595 8.791 9.29895 8.407 9.29895 7.957V5.041H10.3159V7.804C10.3159 8.248 10.4269 8.59 10.6489 8.83C10.8709 9.064 11.1739 9.181 11.5579 9.181C11.9419 9.181 12.2449 9.064 12.4669 8.83C12.6949 8.59 12.8089 8.248 12.8089 7.804V5.041H13.8349ZM15.7107 4.384C15.5247 4.384 15.3687 4.321 15.2427 4.195C15.1167 4.069 15.0537 3.913 15.0537 3.727C15.0537 3.541 15.1167 3.385 15.2427 3.259C15.3687 3.133 15.5247 3.07 15.7107 3.07C15.8907 3.07 16.0437 3.133 16.1697 3.259C16.2957 3.385 16.3587 3.541 16.3587 3.727C16.3587 3.913 16.2957 4.069 16.1697 4.195C16.0437 4.321 15.8907 4.384 15.7107 4.384ZM16.2147 5.041V10H15.1887V5.041H16.2147ZM18.5877 3.34V10H17.5617V3.34H18.5877ZM19.5928 7.498C19.5928 7 19.6948 6.559 19.8988 6.175C20.1088 5.791 20.3908 5.494 20.7448 5.284C21.1048 5.068 21.5038 4.96 21.9418 4.96C22.2658 4.96 22.5838 5.032 22.8958 5.176C23.2138 5.314 23.4658 5.5 23.6518 5.734V3.34H24.6868V10H23.6518V9.253C23.4838 9.493 23.2498 9.691 22.9498 9.847C22.6558 10.003 22.3168 10.081 21.9328 10.081C21.5008 10.081 21.1048 9.973 20.7448 9.757C20.3908 9.535 20.1088 9.229 19.8988 8.839C19.6948 8.443 19.5928 7.996 19.5928 7.498ZM23.6518 7.516C23.6518 7.174 23.5798 6.877 23.4358 6.625C23.2978 6.373 23.1148 6.181 22.8868 6.049C22.6588 5.917 22.4128 5.851 22.1488 5.851C21.8848 5.851 21.6388 5.917 21.4108 6.049C21.1828 6.175 20.9968 6.364 20.8528 6.616C20.7148 6.862 20.6458 7.156 20.6458 7.498C20.6458 7.84 20.7148 8.14 20.8528 8.398C20.9968 8.656 21.1828 8.854 21.4108 8.992C21.6448 9.124 21.8908 9.19 22.1488 9.19C22.4128 9.19 22.6588 9.124 22.8868 8.992C23.1148 8.86 23.2978 8.668 23.4358 8.416C23.5798 8.158 23.6518 7.858 23.6518 7.516ZM30.5794 7.399C30.5794 7.585 30.5674 7.753 30.5434 7.903H26.7544C26.7844 8.299 26.9314 8.617 27.1954 8.857C27.4594 9.097 27.7834 9.217 28.1674 9.217C28.7194 9.217 29.1094 8.986 29.3374 8.524H30.4444C30.2944 8.98 30.0214 9.355 29.6254 9.649C29.2354 9.937 28.7494 10.081 28.1674 10.081C27.6934 10.081 27.2674 9.976 26.8894 9.766C26.5174 9.55 26.2234 9.25 26.0074 8.866C25.7974 8.476 25.6924 8.026 25.6924 7.516C25.6924 7.006 25.7944 6.559 25.9984 6.175C26.2084 5.785 26.4994 5.485 26.8714 5.275C27.2494 5.065 27.6814 4.96 28.1674 4.96C28.6354 4.96 29.0524 5.062 29.4184 5.266C29.7844 5.47 30.0694 5.758 30.2734 6.13C30.4774 6.496 30.5794 6.919 30.5794 7.399ZM29.5084 7.075C29.5024 6.697 29.3674 6.394 29.1034 6.166C28.8394 5.938 28.5124 5.824 28.1224 5.824C27.7684 5.824 27.4654 5.938 27.2134 6.166C26.9614 6.388 26.8114 6.691 26.7634 7.075H29.5084ZM32.6151 5.761C32.7651 5.509 32.9631 5.314 33.2091 5.176C33.4611 5.032 33.7581 4.96 34.1001 4.96V6.022H33.8391C33.4371 6.022 33.1311 6.124 32.9211 6.328C32.7171 6.532 32.6151 6.886 32.6151 7.39V10H31.5891V5.041H32.6151V5.761Z" fill="black"/>
</svg>
