<svg xmlns="http://www.w3.org/2000/svg" width="1100" height="1100" viewBox="0 0 1100 1100" fill="#ffffff"><rect width="100%" height="100%" fill="#ffffff"/><text x="40" y="50" font-size="24" font-family="Arial" font-weight="700" fill="#0f172a">Fig 2 - Agent window return vs 5m technical baselines per symbol</text><text x="60" y="190" font-size="16" font-family="Arial" font-weight="700" fill="#0f172a">BTC (window return %)</text>
<rect x="720" y="70" width="14" height="14" fill="#2563eb"/><text x="742" y="82" font-size="14" font-family="Arial" font-weight="400" fill="#0f172a">return</text>
<line x1="60" y1="200.0" x2="425" y2="200.0" stroke="#2563eb" stroke-width="10" stroke-linecap="round"/>
<text x="431" y="205" font-size="12" font-family="Arial" font-weight="400" fill="#0f172a">-1.35</text>
<text x="54" y="228" font-size="13" font-family="Arial" font-weight="600" fill="#0f172a">momentum5_m5</text>
<line x1="60" y1="276.0" x2="518" y2="276.0" stroke="#2563eb" stroke-width="10" stroke-linecap="round"/>
<text x="524" y="281" font-size="12" font-family="Arial" font-weight="400" fill="#0f172a">-0.67</text>
<text x="54" y="304" font-size="13" font-family="Arial" font-weight="600" fill="#0f172a">momentum30_m30</text>
<line x1="60" y1="352.0" x2="615" y2="352.0" stroke="#2563eb" stroke-width="10" stroke-linecap="round"/>
<text x="621" y="357" font-size="12" font-family="Arial" font-weight="400" fill="#0f172a">0.03</text>
<text x="54" y="380" font-size="13" font-family="Arial" font-weight="600" fill="#0f172a">sma_cross_60_20</text>
<line x1="60" y1="428.0" x2="79" y2="428.0" stroke="#2563eb" stroke-width="10" stroke-linecap="round"/>
<text x="85" y="433" font-size="12" font-family="Arial" font-weight="400" fill="#0f172a">-3.86</text>
<text x="54" y="456" font-size="13" font-family="Arial" font-weight="600" fill="#0f172a">random50</text>
<line x1="60" y1="504.0" x2="587" y2="504.0" stroke="#2563eb" stroke-width="10" stroke-linecap="round"/>
<text x="593" y="509" font-size="12" font-family="Arial" font-weight="400" fill="#0f172a">-0.17</text>
<text x="54" y="532" font-size="13" font-family="Arial" font-weight="600" fill="#0f172a">buy_hold</text>
<line x1="60" y1="150" x2="60" y2="530" stroke="#94a3b8"/>
<line x1="60" y1="530" x2="680" y2="530" stroke="#94a3b8"/>
<text x="600" y="190" font-size="16" font-family="Arial" font-weight="700" fill="#0f172a">ETH (window return %)</text>
<rect x="720" y="70" width="14" height="14" fill="#2563eb"/><text x="742" y="82" font-size="14" font-family="Arial" font-weight="400" fill="#0f172a">return</text>
<line x1="60" y1="200.0" x2="298" y2="200.0" stroke="#2563eb" stroke-width="10" stroke-linecap="round"/>
<text x="304" y="205" font-size="12" font-family="Arial" font-weight="400" fill="#0f172a">-2.27</text>
<text x="54" y="228" font-size="13" font-family="Arial" font-weight="600" fill="#0f172a">momentum5_m5</text>
<line x1="60" y1="276.0" x2="499" y2="276.0" stroke="#2563eb" stroke-width="10" stroke-linecap="round"/>
<text x="505" y="281" font-size="12" font-family="Arial" font-weight="400" fill="#0f172a">-0.82</text>
<text x="54" y="304" font-size="13" font-family="Arial" font-weight="600" fill="#0f172a">momentum30_m30</text>
<line x1="60" y1="352.0" x2="602" y2="352.0" stroke="#2563eb" stroke-width="10" stroke-linecap="round"/>
<text x="608" y="357" font-size="12" font-family="Arial" font-weight="400" fill="#0f172a">-0.07</text>
<text x="54" y="380" font-size="13" font-family="Arial" font-weight="600" fill="#0f172a">sma_cross_60_20</text>
<line x1="60" y1="428.0" x2="83" y2="428.0" stroke="#2563eb" stroke-width="10" stroke-linecap="round"/>
<text x="89" y="433" font-size="12" font-family="Arial" font-weight="400" fill="#0f172a">-3.83</text>
<text x="54" y="456" font-size="13" font-family="Arial" font-weight="600" fill="#0f172a">random50</text>
<line x1="60" y1="504.0" x2="502" y2="504.0" stroke="#2563eb" stroke-width="10" stroke-linecap="round"/>
<text x="508" y="509" font-size="12" font-family="Arial" font-weight="400" fill="#0f172a">-0.79</text>
<text x="54" y="532" font-size="13" font-family="Arial" font-weight="600" fill="#0f172a">buy_hold</text>
<line x1="60" y1="150" x2="60" y2="530" stroke="#94a3b8"/>
<line x1="60" y1="530" x2="680" y2="530" stroke="#94a3b8"/>
<text x="60" y="410" font-size="16" font-family="Arial" font-weight="700" fill="#0f172a">EURUSD (window return %)</text>
<rect x="720" y="70" width="14" height="14" fill="#2563eb"/><text x="742" y="82" font-size="14" font-family="Arial" font-weight="400" fill="#0f172a">return</text>
<line x1="60" y1="200.0" x2="362" y2="200.0" stroke="#2563eb" stroke-width="10" stroke-linecap="round"/>
<text x="368" y="205" font-size="12" font-family="Arial" font-weight="400" fill="#0f172a">-1.81</text>
<text x="54" y="228" font-size="13" font-family="Arial" font-weight="600" fill="#0f172a">momentum5_m5</text>
<line x1="60" y1="276.0" x2="471" y2="276.0" stroke="#2563eb" stroke-width="10" stroke-linecap="round"/>
<text x="477" y="281" font-size="12" font-family="Arial" font-weight="400" fill="#0f172a">-1.02</text>
<text x="54" y="304" font-size="13" font-family="Arial" font-weight="600" fill="#0f172a">momentum30_m30</text>
<line x1="60" y1="352.0" x2="584" y2="352.0" stroke="#2563eb" stroke-width="10" stroke-linecap="round"/>
<text x="590" y="357" font-size="12" font-family="Arial" font-weight="400" fill="#0f172a">-0.20</text>
<text x="54" y="380" font-size="13" font-family="Arial" font-weight="600" fill="#0f172a">sma_cross_60_20</text>
<line x1="60" y1="428.0" x2="155" y2="428.0" stroke="#2563eb" stroke-width="10" stroke-linecap="round"/>
<text x="161" y="433" font-size="12" font-family="Arial" font-weight="400" fill="#0f172a">-3.31</text>
<text x="54" y="456" font-size="13" font-family="Arial" font-weight="600" fill="#0f172a">random50</text>
<line x1="60" y1="504.0" x2="596" y2="504.0" stroke="#2563eb" stroke-width="10" stroke-linecap="round"/>
<text x="602" y="509" font-size="12" font-family="Arial" font-weight="400" fill="#0f172a">-0.11</text>
<text x="54" y="532" font-size="13" font-family="Arial" font-weight="600" fill="#0f172a">buy_hold</text>
<line x1="60" y1="150" x2="60" y2="530" stroke="#94a3b8"/>
<line x1="60" y1="530" x2="680" y2="530" stroke="#94a3b8"/></svg>